<?xml version="1.0" encoding="utf-8"?>
<!-- Generator: Adobe Illustrator 22.0.1, SVG Export Plug-In . SVG Version: 6.00 Build 0)  -->
<svg version="1.1" id="Layer_1" xmlns="http://www.w3.org/2000/svg" xmlns:xlink="http://www.w3.org/1999/xlink" x="0px" y="0px"
	 viewBox="0 0 400 200" enable-background="new 0 0 400 200" xml:space="preserve">
<rect fill="#F5F6FA" width="400" height="200"/>
<g>
	<polygon fill="#E1EAEF" points="167.8,96.8 180.6,96.8 212,78.1 199.5,75.4 	"/>
	<polygon fill="#4B587A" points="137.5,43.3 168,60.1 199.5,43.3 168.5,25.5 	"/>
	<polygon fill="#323E5B" points="168,60.1 168,97 199.5,79.3 199.5,43.3 	"/>
	<polygon fill="#414E6B" points="168,60.1 137.5,43.3 137.5,79.3 168,97 	"/>
	<polygon fill="#F2F5FA" points="138.7,43.9 169.6,26.2 171.6,27.3 140.8,45.1 	"/>
	<polyline fill="#F2F5FA" points="138.7,43.9 138.6,79.9 140.4,81 140.7,45.1 	"/>
</g>
<g>
	<polygon fill="#E1EAEF" points="206.8,118.8 219.6,118.8 251,100.1 238.5,97.4 	"/>
	<polygon fill="#FFFFFF" points="176.5,65.3 207,82.1 238.5,65.3 207.5,47.5 	"/>
	<polygon fill="#CDDFE9" points="207,82.1 207,119 238.5,101.3 238.5,65.3 	"/>
	<polygon fill="#E1EAEF" points="207,82.1 176.5,65.3 176.5,101.3 207,119 	"/>
	<polygon fill="#4B587A" points="177.7,65.9 208.6,48.2 210.6,49.3 179.8,67.1 	"/>
	<polyline fill="#4B587A" points="177.7,65.9 177.6,101.9 179.4,103 179.7,67.1 	"/>
</g>
<g>
	<polygon fill="#E1EAEF" points="151.8,132.8 164.6,132.8 196,114.1 183.5,111.4 	"/>
	<polygon fill="#4B587A" points="121.5,79.3 152,96.1 183.5,79.3 152.5,61.5 	"/>
	<polygon fill="#323E5B" points="152,96.1 152,133 183.5,115.3 183.5,79.3 	"/>
	<polygon fill="#414E6B" points="152,96.1 121.5,79.3 121.5,115.3 152,133 	"/>
	<polygon fill="#F2F5FA" points="122.7,79.9 153.6,62.2 155.6,63.3 124.8,81.1 	"/>
	<polyline fill="#F2F5FA" points="122.7,79.9 122.6,115.9 124.4,117 124.7,81.1 	"/>
</g>
<g>
	<polygon fill="#E1EAEF" points="245.8,142.8 258.6,142.8 290,124.1 277.5,121.4 	"/>
	<polygon fill="#FFFFFF" points="215.5,89.3 246,106.1 277.5,89.3 246.5,71.5 	"/>
	<polygon fill="#CDDFE9" points="246,106.1 246,143 277.5,125.3 277.5,89.3 	"/>
	<polygon fill="#E1EAEF" points="246,106.1 215.5,89.3 215.5,125.3 246,143 	"/>
	<polygon fill="#4B587A" points="216.7,89.9 247.6,72.2 249.6,73.3 218.8,91.1 	"/>
	<polyline fill="#4B587A" points="216.7,89.9 216.6,125.9 218.4,127 218.7,91.1 	"/>
</g>
<g>
	<polygon fill="#E1EAEF" points="192.8,155.8 205.6,155.8 237,137.1 224.5,134.4 	"/>
	<polygon fill="#FFFFFF" points="162.5,102.3 193,119.1 224.5,102.3 193.5,84.5 	"/>
	<polygon fill="#CDDFE9" points="193,119.1 193,156 224.5,138.3 224.5,102.3 	"/>
	<polygon fill="#E1EAEF" points="193,119.1 162.5,102.3 162.5,138.3 193,156 	"/>
	<polygon fill="#4B587A" points="163.7,102.9 194.6,85.2 196.6,86.3 165.8,104.1 	"/>
	<polyline fill="#4B587A" points="163.7,102.9 163.6,138.9 165.4,140 165.7,104.1 	"/>
</g>
<g>
	<polygon fill="#E1EAEF" points="139.8,168.8 152.6,168.8 184,150.1 171.5,147.4 	"/>
	<polygon fill="#4B587A" points="109.5,115.3 140,132.1 171.5,115.3 140.5,97.5 	"/>
	<polygon fill="#323E5B" points="140,132.1 140,169 171.5,151.3 171.5,115.3 	"/>
	<polygon fill="#414E6B" points="140,132.1 109.5,115.3 109.5,151.3 140,169 	"/>
	<polygon fill="#F2F5FA" points="110.7,115.9 141.6,98.2 143.6,99.3 112.8,117.1 	"/>
	<polyline fill="#F2F5FA" points="110.7,115.9 110.6,151.9 112.4,153 112.7,117.1 	"/>
</g>
</svg>
